<?xml version="1.0" encoding="iso-8859-1"?>
<!-- Generator: Adobe Illustrator 19.0.0, SVG Export Plug-In . SVG Version: 6.00 Build 0)  -->
<svg version="1.1" id="Capa_1" xmlns="http://www.w3.org/2000/svg" xmlns:xlink="http://www.w3.org/1999/xlink" x="0px" y="0px"
	 viewBox="0 0 512 512" style="enable-background:new 0 0 512 512;" xml:space="preserve">
<rect style="fill:#CAE8F9;" width="512" height="512"/>
<rect x="256" style="fill:#A3D9F6;" width="256" height="512"/>
<polygon style="fill:#00459F;" points="65.199,205.213 35.199,205.213 35.199,35.199 207.818,35.199 207.818,65.199 65.199,65.199 
	"/>
<polygon style="fill:#002D6B;" points="476.801,205.213 446.801,205.213 446.801,65.199 304.182,65.199 304.182,35.199 
	476.801,35.199 "/>
<polygon style="fill:#00459F;" points="207.818,476.801 35.199,476.801 35.199,306.787 65.199,306.787 65.199,446.801 
	207.818,446.801 "/>
<polygon style="fill:#002D6B;" points="476.801,476.801 304.182,476.801 304.182,446.801 446.801,446.801 446.801,306.787 
	476.801,306.787 "/>
<path style="fill:#84CAFF;" d="M356.14,303.78v86.51H155.86v-86.51c0-38.56,31.37-69.93,69.94-69.93h60.4
	C324.77,233.85,356.14,265.22,356.14,303.78z"/>
<path style="fill:#00A6FF;" d="M356.14,303.78v86.51H256V233.85h30.2C324.77,233.85,356.14,265.22,356.14,303.78z"/>
<path style="fill:#FFDBA9;" d="M320.83,177.54c0,35.75-29.08,64.83-64.83,64.83s-64.83-29.08-64.83-64.83s29.08-64.83,64.83-64.83
	S320.83,141.79,320.83,177.54z"/>
<path style="fill:#FFC473;" d="M320.83,177.54c0,35.75-29.08,64.83-64.83,64.83V112.71C291.75,112.71,320.83,141.79,320.83,177.54z"
	/>
<g>
</g>
<g>
</g>
<g>
</g>
<g>
</g>
<g>
</g>
<g>
</g>
<g>
</g>
<g>
</g>
<g>
</g>
<g>
</g>
<g>
</g>
<g>
</g>
<g>
</g>
<g>
</g>
<g>
</g>
</svg>
